:SAMPLES-PER-SECOND 30
:FULLY-SPECIFIED
:DEGREES
27
root  -23.99666704 38.62599951 24.21200069 4.453360081 -1.146518111 -2.379950047
lowerback  8.927060127 2.979460001 2.919440031
upperback  2.495690107 4.294400215 2.833139896
thorax  -2.410029888 2.125449896 0.8286319971
lowerneck  -15.10420036 7.058919907 -2.243340015
upperneck  18.96999931 11.19709969 -4.064549923
head  8.529490471 4.706110001 0.3189570308
lclavicle  0 -5.34481991e-014 2.981770104e-014
lhumerus  -38.75849915 16.96039963 77.50879669
lradius  0.003583191894 6.643666666e-007 24.54189873
lwrist  -1.645157397e-007 -3.533851896e-007 -4.571450233
lhand  -5.505032044e-031 -15.8135004 33.60620117
lfingers  90 7.125020027 -90
lthumb  93.41605384 18.01962653 79.07819387
rclavicle  0 -5.34481991e-014 2.981770104e-014
rhumerus  -34.4878006 -18.68760109 -71.52259827
rradius  -1.296506525e-006 2.359789448e-007 41.6568985
rwrist  -2.281664457e-008 -8.593936229e-009 12.57229996
rhand  -1.345748685e-031 10.2737999 9.996669769
rfingers  -90 -7.125020027 -90
rthumb  -72.52445805 -22.91766803 -51.04506765
rfemur  -7.15523243 -2.165089607 27.07889938
rtibia  9.670418422e-007 1.119611625e-006 34.56600571
rfoot  2.556521167e-006 -21.91869926 -5.285151005
rtoes  2.336001174 19.8686595 -96.84438506
lfemur  -29.32360649 -2.719478369 -17.26359367
ltibia  -3.641206786e-005 2.004581745e-007 18.60451317
lfoot  -5.693161143e-007 -1.858136296 -1.848600626
ltoes  -5.298979543 -19.31302686 -105.6655569
28
root  -23.95955484 38.64488977 24.49377766 4.346600056 -1.169219732 -2.550840139
lowerback  8.763839722 2.957609892 2.97239995
upperback  2.461679935 4.262320042 2.777369976
thorax  -2.346990108 2.110209942 0.7532550097
lowerneck  -15.09200001 7.117070198 -1.965499997
upperneck  19.11199951 11.25399971 -4.201280117
head  8.600850105 4.731840134 0.2411999553
lclavicle  0 -5.34481991e-014 2.981770104e-014
lhumerus  -39.16230011 17.57900047 76.9355011
lradius  0.003583191894 6.643666666e-007 24.10350418
lwrist  -1.645157397e-007 -3.533851896e-007 -4.85571003
lhand  -5.505032044e-031 -15.8135004 33.60620117
lfingers  90 7.125020027 -90
lthumb  93.41605384 18.01962653 79.07819387
rclavicle  0 -5.34481991e-014 2.981770104e-014
rhumerus  -34.21749878 -18.73910141 -71.63130188
rradius  -1.296506525e-006 2.359789448e-007 41.67559814
rwrist  -2.281664457e-008 -8.593936229e-009 12.35369968
rhand  -1.345748685e-031 10.2737999 9.996669769
rfingers  -90 -7.125020027 -90
rthumb  -72.52445805 -22.91766803 -51.04506765
rfemur  -6.281454086 -2.172569752 27.17070007
rtibia  9.670418422e-007 1.119611625e-006 34.04820633
rfoot  2.556521167e-006 -21.73370361 -5.261371613
rtoes  2.336001174 19.8686595 -96.84438506
lfemur  -29.24260902 -2.740548611 -17.15999603
ltibia  -3.641206786e-005 2.004581745e-007 19.50521278
lfoot  -5.693161143e-007 -0.9681168795 -1.850201368
ltoes  -5.298979543 -19.31302686 -105.6655569
29
root  -23.92066595 38.67688817 24.77222202 4.287789822 -1.204241037 -2.587330341
lowerback  8.878890038 2.941979885 2.868010283
upperback  2.160769939 4.24808979 2.674289942
thorax  -2.722429991 2.097460032 0.6898480058
lowerneck  -15.02289963 7.119470119 -1.883550048
upperneck  19.34790039 11.21959972 -4.042170048
head  8.661680222 4.730229855 0.2786240578
lclavicle  0 -5.34481991e-014 2.981770104e-014
lhumerus  -39.89559937 17.78960037 76.42070007
lradius  0.003583191894 6.643666666e-007 23.88629913
lwrist  -1.645157397e-007 -3.533851896e-007 -4.687270164
lhand  -5.505032044e-031 -15.8135004 33.60620117
lfingers  90 7.125020027 -90
lthumb  93.41605384 18.01962653 79.07819387
rclavicle  0 -5.34481991e-014 2.981770104e-014
rhumerus  -34.55680084 -18.82709885 -71.54060364
rradius  -1.296506525e-006 2.359789448e-007 41.83200073
rwrist  -2.281664457e-008 -8.593936229e-009 12.37349987
rhand  -1.345748685e-031 10.2737999 9.996669769
rfingers  -90 -7.125020027 -90
rthumb  -72.52445805 -22.91766803 -51.04506765
rfemur  -5.544318199 -2.164781094 27.1115036
rtibia  9.670418422e-007 1.119611625e-006 33.66592026
rfoot  2.556521167e-006 -21.49800873 -5.23072052
rtoes  2.336001174 19.8686595 -96.84438506
lfemur  -29.15422249 -2.635135889 -17.23918724
ltibia  -3.641206786e-005 2.004581745e-007 20.27163887
lfoot  -5.693161143e-007 -1.046665311 -1.930841923
ltoes  -5.298979543 -19.31302686 -105.6655569
30
root  -23.9008896 38.70155455 25.04999957 4.25688982 -1.258801937 -2.550080061
lowerback  8.706339836 2.911429882 2.568129778
upperback  2.016819954 4.17580986 2.556050062
thorax  -2.78918004 2.062299967 0.7468670011
lowerneck  -14.99520016 7.136060238 -1.913300037
upperneck  19.39730072 11.19619942 -3.795650244
head  8.654310226 4.7417202 0.3605449498
lclavicle  0 -5.34481991e-014 2.981770104e-014
lhumerus  -40.22230148 18.87310028 75.4756012
lradius  0.003583191894 6.643666666e-007 23.11169624
lwrist  -1.645157397e-007 -3.533851896e-007 -5.426099777
lhand  -5.505032044e-031 -15.8135004 33.60620117
lfingers  90 7.125020027 -90
lthumb  93.41605384 18.01962653 79.07819387
rclavicle  0 -5.34481991e-014 2.981770104e-014
rhumerus  -34.7635994 -18.99470139 -71.60209656
rradius  -1.296506525e-006 2.359789448e-007 42.07690048
rwrist  -2.281664457e-008 -8.593936229e-009 12.32590008
rhand  -1.345748685e-031 10.2737999 9.996669769
rfingers  -90 -7.125020027 -90
rthumb  -72.52445805 -22.91766803 -51.04506765
rfemur  -4.951217175 -2.033099174 27.02370071
rtibia  9.670418422e-007 1.119611625e-006 33.49201584
rfoot  2.556521167e-006 -21.24910927 -5.20387125
rtoes  2.336001174 19.8686595 -96.84438506
lfemur  -28.9782238 -2.632714987 -17.3025856
ltibia  -3.641206786e-005 2.004581745e-007 20.72344589
lfoot  -5.693161143e-007 -1.396903515 -2.131322622
ltoes  -5.298979543 -19.31302686 -105.6655569
31
root  -23.89711095 38.71399887 25.32333314 4.179329872 -1.230199099 -2.39673996
lowerback  8.318710327 2.854370117 2.205160141
upperback  2.128340006 4.043250084 2.355580091
thorax  -2.46984005 2.00248003 0.7803840041
lowerneck  -15.23400021 6.995220184 -2.022609949
upperneck  19.28499985 10.98530006 -3.614980221
head  8.638680458 4.652170181 0.4181639254
lclavicle  0 -5.34481991e-014 2.981770104e-014
lhumerus  -40.13489914 19.89220047 74.63330078
lradius  0.003583191894 6.643666666e-007 22.31380272
lwrist  -1.645157397e-007 -3.533851896e-007 -6.107429981
lhand  -5.505032044e-031 -15.8135004 33.60620117
lfingers  90 7.125020027 -90
lthumb  93.41605384 18.01962653 79.07819387
rclavicle  0 -5.34481991e-014 2.981770104e-014
rhumerus  -34.52610016 -19.28619957 -71.92829895
rradius  -1.296506525e-006 2.359789448e-007 42.1792984
rwrist  -2.281664457e-008 -8.593936229e-009 12.05690002
rhand  -1.345748685e-031 10.2737999 9.996669769
rfingers  -90 -7.125020027 -90
rthumb  -72.52445805 -22.91766803 -51.04506765
rfemur  -4.432772636 -1.91254878 26.86189842
rtibia  9.670418422e-007 1.119611625e-006 33.5546875
rfoot  2.556521167e-006 -20.95549774 -5.282070637
rtoes  2.336001174 19.8686595 -96.84438506
lfemur  -28.70380402 -2.723538876 -17.42079544
ltibia  -3.641206786e-005 2.004581745e-007 20.88891792
lfoot  -5.693161143e-007 -1.170252442 -2.37734127
ltoes  -5.298979543 -19.31302686 -105.6655569
32
root  -23.88377753 38.74488891 25.5899985 4.10284996 -1.076208353 -2.088369846
lowerback  8.205510139 2.777580023 1.770719886
upperback  2.074860096 3.896159887 2.108740091
thorax  -2.47416997 1.931280017 0.7868909836
lowerneck  -15.50990009 6.784689903 -2.099859953
upperneck  19.50009918 10.68599987 -3.37816
head  8.739609718 4.516119957 0.4875250161
lclavicle  0 -5.34481991e-014 2.981770104e-014
lhumerus  -40.3105011 20.53140068 73.90920258
lradius  0.003583191894 6.643666666e-007 21.73180008
lwrist  -1.645157397e-007 -3.533851896e-007 -6.634910107
lhand  -5.505032044e-031 -15.8135004 33.60620117
lfingers  90 7.125020027 -90
lthumb  93.41605384 18.01962653 79.07819387
rclavicle  0 -5.34481991e-014 2.981770104e-014
rhumerus  -34.58959961 -19.54380035 -72.11830139
rradius  -1.296506525e-006 2.359789448e-007 42.26380157
rwrist  -2.281664457e-008 -8.593936229e-009 11.88339996
rhand  -1.345748685e-031 10.2737999 9.996669769
rfingers  -90 -7.125020027 -90
rthumb  -72.52445805 -22.91766803 -51.04506765
rfemur  -4.086336613 -1.877770305 26.52980232
rtibia  9.670418422e-007 1.119611625e-006 33.81529999
rfoot  2.556521167e-006 -20.58720207 -5.34375906
rtoes  2.336001174 19.8686595 -96.84438506
lfemur  -28.47201347 -2.927636623 -17.71939087
ltibia  -3.641206786e-005 2.004581745e-007 20.95313072
lfoot  -5.693161143e-007 -0.4675633013 -2.453831434
ltoes  -5.298979543 -19.31302686 -105.6655569
